# xmcd
#
# Track frame offsets: 
#        150
#        14943
#        27726
#        42749
#        68039
#        90410
#        108175
#        136275
#        156793
#        167977
#        177664
#        198015
#
# Disc length: 3006 seconds
#
# Revision: 0
# Processed by: cddbd v1.5.2PL0 Copyright (c) Steve Scherf et al.
# Submitted via: ExactAudioCopy v0.99pb5
#
DISCID=a90bbc0c
DTITLE=Stone Cold Boys - Just a Fish
DYEAR=2009
DGENRE=Stoner rock
TTITLE0=Wonderland
TTITLE1=Barney the Cowboy
TTITLE2=Song of the Wolf
TTITLE3=Last Action Hero
TTITLE4=Here Comes the Ambulance
TTITLE5=Twist
TTITLE6=Marry the Snake
TTITLE7=Meadow
TTITLE8=Not at Home
TTITLE9=Three Good Squarez
TTITLE10=London Bridge
TTITLE11=Easy Rider 
EXTD=
EXTT0=
EXTT1=
EXTT2=
EXTT3=
EXTT4=
EXTT5=
EXTT6=
EXTT7=
EXTT8=
EXTT9=
EXTT10=
EXTT11=
PLAYORDER=
